<svg width="43" height="41" viewBox="0 0 43 41" fill="none" xmlns="http://www.w3.org/2000/svg">
<path d="M16.9047 39.5439C16.0681 40.1468 15.1372 40.365 14.112 40.1985C13.0869 40.032 12.2729 39.5304 11.67 38.6937L0.708636 23.4816C0.105759 22.6449 -0.112434 21.714 0.0540549 20.6889C0.220544 19.6637 0.722123 18.8497 1.55879 18.2468L25.8983 0.708611C26.7349 0.105734 27.6658 -0.112459 28.691 0.0540298C29.7161 0.220519 30.5301 0.722098 31.133 1.55877L42.0944 16.7709C42.6973 17.6076 42.9155 18.5385 42.749 19.5636C42.5825 20.5888 42.0809 21.4028 41.2442 22.0057L16.9047 39.5439ZM19.7012 30.5957L31.8709 21.8266L29.6787 18.7841L17.5089 27.5532L19.7012 30.5957ZM11.8491 29.3204L14.8916 27.1282L12.6993 24.0857L9.65685 26.278L11.8491 29.3204ZM16.4128 26.032L19.4552 23.8397L17.2629 20.7973L14.2205 22.9896L16.4128 26.032ZM20.9764 22.7436L24.0189 20.5513L21.8266 17.5089L18.7842 19.7012L20.9764 22.7436ZM25.5401 19.4552L28.5825 17.2629L26.3902 14.2205L23.3478 16.4128L25.5401 19.4552ZM30.1037 16.1668L33.1462 13.9745L30.9539 10.9321L27.9115 13.1243L30.1037 16.1668ZM8.56071 24.7568L11.6031 22.5645L9.41086 19.5221L6.36843 21.7144L8.56071 24.7568ZM13.1244 21.4684L16.1668 19.2761L13.9745 16.2337L10.9321 18.4259L13.1244 21.4684ZM17.688 18.18L20.7305 15.9877L18.5382 12.9452L15.4957 15.1375L17.688 18.18ZM22.2517 14.8915L25.2941 12.6993L23.1018 9.65682L20.0594 11.8491L22.2517 14.8915ZM26.8153 11.6031L29.8578 9.41084L27.6655 6.3684L24.623 8.56068L26.8153 11.6031Z" fill="#1D1B20"/>
</svg>
